<mxfile host="app.diagrams.net" agent="Mozilla/5.0 (Windows NT 10.0; Win64; x64) AppleWebKit/537.36 (KHTML, like Gecko) Chrome/129.0.0.0 Safari/537.36" version="24.7.17">
  <diagram id="C5RBs43oDa-KdzZeNtuy" name="Page-1">
    <mxGraphModel dx="1035" dy="622" grid="1" gridSize="10" guides="1" tooltips="1" connect="1" arrows="1" fold="1" page="1" pageScale="1" pageWidth="827" pageHeight="1169" math="0" shadow="0">
      <root>
        <mxCell id="WIyWlLk6GJQsqaUBKTNV-0" />
        <mxCell id="WIyWlLk6GJQsqaUBKTNV-1" parent="WIyWlLk6GJQsqaUBKTNV-0" />
        <mxCell id="WIyWlLk6GJQsqaUBKTNV-2" value="" style="rounded=0;html=1;jettySize=auto;orthogonalLoop=1;fontSize=11;endArrow=block;endFill=0;endSize=8;strokeWidth=1;shadow=0;labelBackgroundColor=none;edgeStyle=orthogonalEdgeStyle;" parent="WIyWlLk6GJQsqaUBKTNV-1" source="WIyWlLk6GJQsqaUBKTNV-3" edge="1">
          <mxGeometry relative="1" as="geometry">
            <mxPoint x="384" y="170" as="targetPoint" />
          </mxGeometry>
        </mxCell>
        <mxCell id="WIyWlLk6GJQsqaUBKTNV-3" value="Start&amp;nbsp;" style="rounded=1;whiteSpace=wrap;html=1;fontSize=12;glass=0;strokeWidth=1;shadow=0;" parent="WIyWlLk6GJQsqaUBKTNV-1" vertex="1">
          <mxGeometry x="324" y="80" width="120" height="40" as="geometry" />
        </mxCell>
        <mxCell id="3aolv1SR35uRjS7q9qpj-7" value="" style="edgeStyle=orthogonalEdgeStyle;rounded=0;orthogonalLoop=1;jettySize=auto;html=1;" edge="1" parent="WIyWlLk6GJQsqaUBKTNV-1" source="WIyWlLk6GJQsqaUBKTNV-7">
          <mxGeometry relative="1" as="geometry">
            <mxPoint x="384" y="340" as="targetPoint" />
          </mxGeometry>
        </mxCell>
        <mxCell id="WIyWlLk6GJQsqaUBKTNV-7" value="&lt;font style=&quot;font-size: 11px;&quot;&gt;Generate as many blanks as letters in word&lt;/font&gt;" style="rounded=1;whiteSpace=wrap;html=1;fontSize=12;glass=0;strokeWidth=1;shadow=0;" parent="WIyWlLk6GJQsqaUBKTNV-1" vertex="1">
          <mxGeometry x="324" y="250" width="120" height="40" as="geometry" />
        </mxCell>
        <mxCell id="3aolv1SR35uRjS7q9qpj-9" value="" style="edgeStyle=orthogonalEdgeStyle;rounded=0;orthogonalLoop=1;jettySize=auto;html=1;" edge="1" parent="WIyWlLk6GJQsqaUBKTNV-1" source="3aolv1SR35uRjS7q9qpj-5" target="WIyWlLk6GJQsqaUBKTNV-7">
          <mxGeometry relative="1" as="geometry" />
        </mxCell>
        <mxCell id="3aolv1SR35uRjS7q9qpj-5" value="Generate Random Word&amp;nbsp;" style="rounded=1;whiteSpace=wrap;html=1;fontSize=12;glass=0;strokeWidth=1;shadow=0;" vertex="1" parent="WIyWlLk6GJQsqaUBKTNV-1">
          <mxGeometry x="324" y="170" width="120" height="40" as="geometry" />
        </mxCell>
        <mxCell id="3aolv1SR35uRjS7q9qpj-11" value="" style="edgeStyle=orthogonalEdgeStyle;rounded=0;orthogonalLoop=1;jettySize=auto;html=1;" edge="1" parent="WIyWlLk6GJQsqaUBKTNV-1" source="3aolv1SR35uRjS7q9qpj-6" target="3aolv1SR35uRjS7q9qpj-10">
          <mxGeometry relative="1" as="geometry" />
        </mxCell>
        <mxCell id="3aolv1SR35uRjS7q9qpj-6" value="Ask the user to guess a letter&amp;nbsp;&amp;nbsp;" style="whiteSpace=wrap;html=1;rounded=1;glass=0;strokeWidth=1;shadow=0;" vertex="1" parent="WIyWlLk6GJQsqaUBKTNV-1">
          <mxGeometry x="324" y="341" width="120" height="40" as="geometry" />
        </mxCell>
        <mxCell id="3aolv1SR35uRjS7q9qpj-13" value="" style="edgeStyle=orthogonalEdgeStyle;rounded=0;orthogonalLoop=1;jettySize=auto;html=1;" edge="1" parent="WIyWlLk6GJQsqaUBKTNV-1" source="3aolv1SR35uRjS7q9qpj-10" target="3aolv1SR35uRjS7q9qpj-12">
          <mxGeometry relative="1" as="geometry">
            <Array as="points">
              <mxPoint x="234" y="501" />
            </Array>
          </mxGeometry>
        </mxCell>
        <mxCell id="3aolv1SR35uRjS7q9qpj-15" value="Yes" style="edgeLabel;html=1;align=center;verticalAlign=middle;resizable=0;points=[];" vertex="1" connectable="0" parent="3aolv1SR35uRjS7q9qpj-13">
          <mxGeometry x="-0.4118" relative="1" as="geometry">
            <mxPoint x="-18" y="40" as="offset" />
          </mxGeometry>
        </mxCell>
        <mxCell id="3aolv1SR35uRjS7q9qpj-19" value="" style="edgeStyle=orthogonalEdgeStyle;rounded=0;orthogonalLoop=1;jettySize=auto;html=1;" edge="1" parent="WIyWlLk6GJQsqaUBKTNV-1" source="3aolv1SR35uRjS7q9qpj-10" target="3aolv1SR35uRjS7q9qpj-18">
          <mxGeometry relative="1" as="geometry">
            <Array as="points">
              <mxPoint x="494" y="501" />
            </Array>
          </mxGeometry>
        </mxCell>
        <mxCell id="3aolv1SR35uRjS7q9qpj-20" value="No" style="edgeLabel;html=1;align=center;verticalAlign=middle;resizable=0;points=[];" vertex="1" connectable="0" parent="3aolv1SR35uRjS7q9qpj-19">
          <mxGeometry x="-0.1822" relative="1" as="geometry">
            <mxPoint x="-4" y="19" as="offset" />
          </mxGeometry>
        </mxCell>
        <mxCell id="3aolv1SR35uRjS7q9qpj-10" value="is the guessed letter&amp;nbsp;&lt;div&gt;in the word ?&lt;/div&gt;" style="rhombus;whiteSpace=wrap;html=1;rounded=1;glass=0;strokeWidth=1;shadow=0;" vertex="1" parent="WIyWlLk6GJQsqaUBKTNV-1">
          <mxGeometry x="294" y="441" width="180" height="119" as="geometry" />
        </mxCell>
        <mxCell id="3aolv1SR35uRjS7q9qpj-22" value="" style="edgeStyle=orthogonalEdgeStyle;rounded=0;orthogonalLoop=1;jettySize=auto;html=1;" edge="1" parent="WIyWlLk6GJQsqaUBKTNV-1" source="3aolv1SR35uRjS7q9qpj-12" target="3aolv1SR35uRjS7q9qpj-21">
          <mxGeometry relative="1" as="geometry">
            <Array as="points">
              <mxPoint x="234" y="690" />
              <mxPoint x="234" y="690" />
            </Array>
          </mxGeometry>
        </mxCell>
        <mxCell id="3aolv1SR35uRjS7q9qpj-12" value="Replace the blank with the letter&amp;nbsp;" style="whiteSpace=wrap;html=1;rounded=1;glass=0;strokeWidth=1;shadow=0;" vertex="1" parent="WIyWlLk6GJQsqaUBKTNV-1">
          <mxGeometry x="174" y="585" width="120" height="60" as="geometry" />
        </mxCell>
        <mxCell id="3aolv1SR35uRjS7q9qpj-28" value="" style="edgeStyle=orthogonalEdgeStyle;rounded=0;orthogonalLoop=1;jettySize=auto;html=1;" edge="1" parent="WIyWlLk6GJQsqaUBKTNV-1" source="3aolv1SR35uRjS7q9qpj-18" target="3aolv1SR35uRjS7q9qpj-27">
          <mxGeometry relative="1" as="geometry">
            <Array as="points">
              <mxPoint x="499" y="690" />
              <mxPoint x="499" y="690" />
            </Array>
          </mxGeometry>
        </mxCell>
        <mxCell id="3aolv1SR35uRjS7q9qpj-18" value="Lose a Life" style="rounded=1;whiteSpace=wrap;html=1;glass=0;strokeWidth=1;shadow=0;" vertex="1" parent="WIyWlLk6GJQsqaUBKTNV-1">
          <mxGeometry x="439" y="580" width="120" height="60" as="geometry" />
        </mxCell>
        <mxCell id="3aolv1SR35uRjS7q9qpj-24" value="" style="edgeStyle=orthogonalEdgeStyle;rounded=0;orthogonalLoop=1;jettySize=auto;html=1;entryX=0;entryY=0.5;entryDx=0;entryDy=0;" edge="1" parent="WIyWlLk6GJQsqaUBKTNV-1" source="3aolv1SR35uRjS7q9qpj-21" target="3aolv1SR35uRjS7q9qpj-6">
          <mxGeometry relative="1" as="geometry">
            <mxPoint x="320" y="370" as="targetPoint" />
            <Array as="points">
              <mxPoint x="139" y="763" />
              <mxPoint x="139" y="360" />
              <mxPoint x="320" y="360" />
              <mxPoint x="320" y="361" />
            </Array>
          </mxGeometry>
        </mxCell>
        <mxCell id="3aolv1SR35uRjS7q9qpj-25" value="No" style="edgeLabel;html=1;align=center;verticalAlign=middle;resizable=0;points=[];fontStyle=1" vertex="1" connectable="0" parent="3aolv1SR35uRjS7q9qpj-24">
          <mxGeometry x="-0.8771" y="-2" relative="1" as="geometry">
            <mxPoint as="offset" />
          </mxGeometry>
        </mxCell>
        <mxCell id="3aolv1SR35uRjS7q9qpj-35" value="" style="edgeStyle=orthogonalEdgeStyle;rounded=0;orthogonalLoop=1;jettySize=auto;html=1;" edge="1" parent="WIyWlLk6GJQsqaUBKTNV-1" source="3aolv1SR35uRjS7q9qpj-21">
          <mxGeometry relative="1" as="geometry">
            <mxPoint x="360" y="913" as="targetPoint" />
            <Array as="points">
              <mxPoint x="234" y="910" />
              <mxPoint x="370" y="910" />
              <mxPoint x="370" y="913" />
            </Array>
          </mxGeometry>
        </mxCell>
        <mxCell id="3aolv1SR35uRjS7q9qpj-36" value="Yes" style="edgeLabel;html=1;align=center;verticalAlign=middle;resizable=0;points=[];" vertex="1" connectable="0" parent="3aolv1SR35uRjS7q9qpj-35">
          <mxGeometry x="0.0061" y="3" relative="1" as="geometry">
            <mxPoint x="-1" as="offset" />
          </mxGeometry>
        </mxCell>
        <mxCell id="3aolv1SR35uRjS7q9qpj-21" value="Are the All blanks&amp;nbsp;&lt;div&gt;filled?&lt;/div&gt;" style="rhombus;whiteSpace=wrap;html=1;rounded=1;glass=0;strokeWidth=1;shadow=0;" vertex="1" parent="WIyWlLk6GJQsqaUBKTNV-1">
          <mxGeometry x="164" y="720" width="140" height="95" as="geometry" />
        </mxCell>
        <mxCell id="3aolv1SR35uRjS7q9qpj-30" value="" style="edgeStyle=orthogonalEdgeStyle;rounded=0;orthogonalLoop=1;jettySize=auto;html=1;entryX=1;entryY=0.5;entryDx=0;entryDy=0;" edge="1" parent="WIyWlLk6GJQsqaUBKTNV-1" source="3aolv1SR35uRjS7q9qpj-27" target="3aolv1SR35uRjS7q9qpj-6">
          <mxGeometry relative="1" as="geometry">
            <mxPoint x="570" y="390" as="targetPoint" />
            <Array as="points">
              <mxPoint x="670" y="755" />
              <mxPoint x="670" y="361" />
            </Array>
          </mxGeometry>
        </mxCell>
        <mxCell id="3aolv1SR35uRjS7q9qpj-31" value="No" style="edgeLabel;html=1;align=center;verticalAlign=middle;resizable=0;points=[];" vertex="1" connectable="0" parent="3aolv1SR35uRjS7q9qpj-30">
          <mxGeometry x="-0.854" y="1" relative="1" as="geometry">
            <mxPoint as="offset" />
          </mxGeometry>
        </mxCell>
        <mxCell id="3aolv1SR35uRjS7q9qpj-33" value="" style="edgeStyle=orthogonalEdgeStyle;rounded=0;orthogonalLoop=1;jettySize=auto;html=1;" edge="1" parent="WIyWlLk6GJQsqaUBKTNV-1" source="3aolv1SR35uRjS7q9qpj-27">
          <mxGeometry relative="1" as="geometry">
            <mxPoint x="360" y="910" as="targetPoint" />
            <Array as="points">
              <mxPoint x="499" y="910" />
              <mxPoint x="500" y="910" />
            </Array>
          </mxGeometry>
        </mxCell>
        <mxCell id="3aolv1SR35uRjS7q9qpj-37" value="Yes" style="edgeLabel;html=1;align=center;verticalAlign=middle;resizable=0;points=[];" vertex="1" connectable="0" parent="3aolv1SR35uRjS7q9qpj-33">
          <mxGeometry x="-0.0367" y="1" relative="1" as="geometry">
            <mxPoint as="offset" />
          </mxGeometry>
        </mxCell>
        <mxCell id="3aolv1SR35uRjS7q9qpj-27" value="Have they run&lt;div&gt;&amp;nbsp;out of lives?&lt;/div&gt;" style="rhombus;whiteSpace=wrap;html=1;rounded=1;glass=0;strokeWidth=1;shadow=0;" vertex="1" parent="WIyWlLk6GJQsqaUBKTNV-1">
          <mxGeometry x="434" y="710" width="130" height="90" as="geometry" />
        </mxCell>
        <mxCell id="3aolv1SR35uRjS7q9qpj-39" value="" style="endArrow=classic;html=1;rounded=0;" edge="1" parent="WIyWlLk6GJQsqaUBKTNV-1">
          <mxGeometry width="50" height="50" relative="1" as="geometry">
            <mxPoint x="366" y="910" as="sourcePoint" />
            <mxPoint x="366" y="990" as="targetPoint" />
          </mxGeometry>
        </mxCell>
        <mxCell id="3aolv1SR35uRjS7q9qpj-40" value="Game Over&amp;nbsp;" style="rounded=1;whiteSpace=wrap;html=1;" vertex="1" parent="WIyWlLk6GJQsqaUBKTNV-1">
          <mxGeometry x="304" y="990" width="120" height="50" as="geometry" />
        </mxCell>
      </root>
    </mxGraphModel>
  </diagram>
</mxfile>
